<?xml version="1.0" encoding="UTF-8"?>
<svg version="1.1" viewBox="0 0 1200 1200" width="1280" height="1280" xmlns="http://www.w3.org/2000/svg">
<path transform="translate(0)" d="m0 0h1200v1200h-1200z" fill="#175227"/>
<path transform="translate(917,522)" d="m0 0h4l1 151 4 8 10 3 1 4-35 1-1-14-8 9-8 4-10 2-13-1-11-4-8-6-7-9-5-13-2-10v-25l4-16 6-11 7-8 11-7 9-3 14-1 13 4 8 7v-46l-3-8-5-3-7-2v-4l25-1z" fill="#FDBC49"/>
<path transform="translate(229,539)" d="m0 0h4l22 57 16 41 15 38 6 7 6 2v5h-49v-5l11-2 2-1 1-6-4-13-11-29h-50l-5 12-7 19-1 9 3 7 7 3 7 1 1 4-40 1v-5l8-5 4-5 8-18 13-34 19-49 13-33z" fill="#FDBC49"/>
<path transform="translate(759,580)" d="m0 0 11 2 7 5 6 10 3 9 2 11v32l-3 15-4 9-6 8-8 4-8 1-9-3-8-7-5-11-3-12-1-12v-16l2-17 4-12 6-9 5-4z" fill="#175227"/>
<path transform="translate(643,580)" d="m0 0 8 1 8 4 6 7 4 9 3 14v37l-4 16-6 10-6 5-10 3-10-2-8-6-6-10-4-18-1-19 2-21 3-11 4-8 5-6 8-4z" fill="#175227"/>
<path transform="translate(877,580)" d="m0 0 12 2 6 4 6 8 1 3v65l-4 10-5 6-10 5h-11l-10-5-6-7-4-10-2-9-1-11v-16l2-17 5-13 6-8 5-4z" fill="#175227"/>
<path transform="translate(481,539)" d="m0 0h105l-1 44-4-1-1-1-3-19-4-10-7-6-8-2h-32l-6 3-1 3-1 63 20-1 6-3 4-5 3-10 2-9h4l1 60h-5l-3-17-4-6-4-3-4-1-20-1 1 58 3 6 7 2 9 1 1 4-57 1-1-5 12-2 3-3 1-4v-123l-2-7-14-2z" fill="#FDBC49"/>
<path transform="translate(599,446)" d="m0 0 5 1 15 6 12 7 8 8 7 13-1 4-17 10-17 7-19 5-10 1h-15l-12-1-4-2v-37l5-5 14-7 18-4 10-5z" fill="#FDBC49"/>
<path transform="translate(640,576)" d="m0 0h9l14 3 10 5 8 7 6 10 4 11 2 12v19l-3 15-4 10-8 10-10 7-12 4-7 1h-8l-14-3-10-5-8-7-6-9-4-12-2-13v-15l2-14 4-11 5-8 5-6 11-7zm3 4-9 3-6 5-5 8-3 9-2 11-1 19 2 21 3 12 6 10 8 6 10 2 10-3 7-6 6-12 3-13v-37l-4-17-6-10-6-5-9-3z" fill="#FDBC49"/>
<path transform="translate(756,576)" d="m0 0h9l14 3 10 5 10 10 6 12 3 13 1 16-2 19-5 13-6 8-7 7-10 5-14 3h-8l-15-3-9-5-9-8-6-10-4-13-1-6v-23l3-15 6-12 8-9 10-6zm3 4-9 3-7 6-6 12-3 12-1 12v16l2 17 4 12 5 8 6 5 9 3 11-2 7-5 6-9 4-14 1-7v-32l-4-18-5-9-4-5-8-4z" fill="#FDBC49"/>
<path transform="translate(333,522)" d="m0 0h4l1 153 3 6 11 3 1 4h-51v-4l12-3 3-7v-133l-3-8-5-3-7-2v-4l25-1z" fill="#FDBC49"/>
<path transform="translate(981,576)" d="m0 0h8l12 3 9 6h4l3-9h4v36l-5 1-5-15-5-9-6-5-5-2-9-1-9 3-5 5-1 3v9l3 6 9 8 22 14 10 8 7 8 4 11v9l-4 11-9 8-9 4-10 2h-9l-12-3-9-6h-3l-3 7h-5l1-42 4-1 2 5 3 14 5 12 7 6 5 2 9 1 10-3 6-7 1-3v-11l-4-8-9-8-23-15-10-9-4-6-2-7v-10l3-9 7-7 8-4z" fill="#FDBC49"/>
<path transform="translate(562,374)" d="m0 0h21l16 4 6 3v23l-3 10-6 9-8 6-8 3-13 1-11-4-8-6-6-8-3-8v-26l9-4z" fill="#FDBC49"/>
<path transform="translate(396,575)" d="m0 0h3l1 101 3 5 5 2 7 2v3h-51v-4l9-2 5-5 1-3v-79l-3-8-4-3-8-2v-5h20z" fill="#FDBC49"/>
<path transform="translate(556,312)" d="m0 0h33l12 3 13 7 9 8 6 8-1 7-9 4-5 2-4-1 6-10-1-4h-4l-6 9-3 3-6-1-1-5 1-5v-11l-2-5h-4l-1 4v14l-2 5h-11l-1-21-1-2h-6v23h-11l-3-7v-16h-5l-1 3v17l1 5-7 2-5-5-5-8-4 1 1 7 4 6v2l-5-1-10-4-3-4 1-6 8-9 11-8 11-5z" fill="#FDBC49"/>
<path transform="translate(542,446)" d="m0 0 4 1 11 6v2l-9 5-3 5-1 39-8-1-16-6-17-9-5-4 1-6 7-11 7-7 10-6 14-6z" fill="#FDBC49"/>
<path transform="translate(223,567)" d="m0 0 2 3 15 39 6 16v3h-47l6-17 16-41z" fill="#175227"/>
<path transform="translate(560,352)" d="m0 0h25l15 3 5 2v14l-2 1-18-4-8-1h-10l-18 3-10 2v-15l9-3z" fill="#FDBC49"/>
<path transform="translate(383,526)" d="m0 0h9l5 3 4 6v9l-3 5-7 4-9-1-5-4-3-7 2-9z" fill="#FDBC49"/>
<path transform="translate(553,436)" d="m0 0 9 3h18l9-3h3v6l-10 5-4 1h-13l-11-4-1-1z" fill="#FDBC49"/>
<path transform="translate(613,376)" d="m0 0 7 3 4 6 1 8-3 7-5 5-5 1z" fill="#FDBC49"/>
<path transform="translate(529,376)" d="m0 0 2 1v29l-8-4-4-8 1-9 4-6z" fill="#FDBC49"/>
<path transform="translate(563,468)" d="m0 0h9l2 2-1 5-2 1h-7l-3-1-1-5z" fill="#175227"/>
<path transform="translate(562,494)" d="m0 0h11l1 1v5l-1 1h-11l-2-2 1-4z" fill="#175227"/>
<path transform="translate(562,481)" d="m0 0h11l1 1v5l-1 1h-11l-2-2 1-4z" fill="#175227"/>
</svg>
